<svg enable-background="new 0 0 96 96" viewBox="0 0 96 96" xmlns="http://www.w3.org/2000/svg"><g fill="none" stroke="#04AA51" stroke-linecap="round" stroke-miterlimit="10" stroke-width="4"><path d="m10.6 67.2c-2.9-5.7-4.6-12.3-4.6-19.2 0-23.2 18.8-42 42-42 8.7 0 16.8 2.7 23.5 7.2"/><path d="m85.3 28.7c3 5.8 4.7 12.3 4.7 19.3 0 23.2-18.8 42-42 42-8.7 0-16.8-2.7-23.5-7.2"/><path d="m61.7 74.6c-4.1 2.2-8.8 3.4-13.7 3.4-16.6 0-30-13.4-30-30 0-6.2 1.9-12 5.1-16.8"/><path d="m34.2 21.3c4.1-2.1 8.8-3.3 13.8-3.3 16.6 0 30 13.4 30 30 0 6.2-1.9 12-5.1 16.8"/><path d="m48 32.7 4.6 9.4 10.4 1.5-7.5 7.3 1.8 10.3-9.3-4.8-9.3 4.8 1.8-10.3-7.5-7.3 10.3-1.5z" stroke-linejoin="round"/></g></svg>