<svg height="259" viewBox="0 0 137 259" width="137" xmlns="http://www.w3.org/2000/svg" xmlns:xlink="http://www.w3.org/1999/xlink"><mask id="a" fill="#fff"><path d="m.334 25.184c0 13.802 11.189 24.991 24.991 24.991 13.8 0 24.989-11.189 24.989-24.991 0-13.8-11.189-24.988-24.989-24.988-13.802 0-24.991 11.188-24.991 24.988z" fill="#fff" fill-rule="evenodd"/></mask><mask id="b" fill="#fff"><path d="m.325 50.175c13.8 0 24.989-11.189 24.989-24.991 0-13.8-11.189-24.988-24.989-24.988z" fill="#fff" fill-rule="evenodd"/></mask><mask id="c" fill="#fff"><path d="m.816 14.184c0 7.461 6.048 13.508 13.509 13.508 7.46 0 13.508-6.047 13.508-13.508 0-7.459-6.048-13.507-13.508-13.507-7.461 0-13.509 6.048-13.509 13.507z" fill="#fff" fill-rule="evenodd"/></mask><mask id="d" fill="#fff"><path d="m.896 8.185c0 4.103 3.324 7.429 7.43 7.429 4.064 0 7.366-3.263 7.428-7.313v-.233c-.062-4.048-3.364-7.311-7.428-7.311-4.106 0-7.43 3.326-7.43 7.428z" fill="#fff" fill-rule="evenodd"/></mask><g fill="none" fill-rule="evenodd"><g transform="translate(41 161)"><path d="m1.151 97.929h94.482v-97.518h-94.482z" fill="#d7ecfc"/><path d="m-3.043 53.551h56.733v-56.733h-56.733z" fill="#fafafa" mask="url(#a)" transform="translate(22 24.79)"/><path d="m-3.052 53.551h31.743v-56.733h-31.743z" fill="#a5d164" mask="url(#b)" transform="translate(47 24.79)"/><path d="m-2.561 31.071h33.771v-33.771h-33.771z" fill="#d7ecfc" mask="url(#c)" transform="translate(33 35.79)"/><g stroke="#3b6385" stroke-width="2"><path d="m8.3246 15.6143c4.103 0 7.429-3.326 7.429-7.43 0-4.102-3.326-7.428-7.429-7.428-4.104 0-7.43 3.326-7.43 7.428 0 4.104 3.326 7.43 7.43 7.43z" mask="url(#d)" transform="translate(39 41.79)"/><g transform="translate(0 24.79)"><path d="m47.3246 32.6143c4.103 0 7.429-3.326 7.429-7.43 0-4.102-3.326-7.428-7.429-7.428-4.104 0-7.43 3.326-7.43 7.428 0 4.104 3.326 7.43 7.43 7.43z"/><path d="m.9106.1953h47.089c13.429 0 24.314 10.886 24.314 24.314v48.629"/></g></g></g><path d="m0 162h103v-162h-103z" fill="#04aa51"/><g fill="#d7ecfc"><path d="m31 46h9v-9h-9z"/><path d="m31 111h9v-9h-9z"/><path d="m31 78h9v-9h-9z"/><path d="m47 62h9v-9h-9z"/><path d="m47 127h9v-9h-9z"/><path d="m63 111h9v-9h-9z"/><path d="m63 78h9v-9h-9z"/><path d="m47 95h9v-9h-9z"/><path d="m63 46h9v-9h-9z"/></g><g fill="#a5d164"><path d="m31 95h9v-9h-9z"/><path d="m31 62h9v-9h-9z"/><path d="m31 127h9v-9h-9z"/><path d="m47 111h9v-9h-9z"/><path d="m47 78h9v-9h-9z"/><path d="m63 62h9v-9h-9z"/><path d="m63 127h9v-9h-9z"/><path d="m47 46h9v-9h-9z"/><path d="m63 95h9v-9h-9z"/></g></g></svg>