<svg fill="none" height="239" viewBox="0 0 220 239" width="220" xmlns="http://www.w3.org/2000/svg" xmlns:xlink="http://www.w3.org/1999/xlink"><clipPath id="a"><path d="m0 0h220v239h-220z"/></clipPath><g clip-path="url(#a)" clip-rule="evenodd" fill-rule="evenodd"><path d="m0 218.777h61.6923v-126.777h-61.6923z" fill="#3b6385"/><path d="m20.9697 110.455c2.5371 0 4.5936 2.056 4.5936 4.594v37.108c0 2.537-2.0565 4.594-4.5936 4.594s-4.5945-2.057-4.5945-4.594v-37.108c0-2.538 2.0574-4.594 4.5945-4.594z" fill="#a4dd26"/><path d="m16.4241 140.284c0-2.523 2.0457-4.569 4.5702-4.569 2.5236 0 4.5693 2.046 4.5693 4.569 0 2.525-2.0457 4.57-4.5693 4.57-2.5245 0-4.5702-2.045-4.5702-4.57z" fill="#fff"/><path d="m41.5756 149.721c2.6397 0 4.779 2.14 4.779 4.779v47.987c0 2.639-2.1393 4.778-4.779 4.778s-4.779-2.139-4.779-4.778v-47.987c0-2.639 2.1393-4.779 4.779-4.779z" fill="#36d4ed"/><path d="m41.5758 149.868c2.6397 0 4.779 2.139 4.779 4.779v-38.536c0-2.637-2.1393-4.778-4.779-4.778s-4.779 2.141-4.779 4.778v38.536c0-2.64 2.1393-4.779 4.779-4.779z" fill="#0f3859"/><path d="m61 147.409h158.465v-147.409h-158.465z" fill="#36d4ed"/><path d="m191.826 73.7041c0 28.4939-23.099 51.5939-51.593 51.5939s-51.5937-23.1-51.5937-51.5939c0-28.494 23.0997-51.5925 51.5937-51.5925s51.593 23.0985 51.593 51.5925z" stroke="#f2f2f2" stroke-width="1.8"/><path d="m178.314 73.7042c0 21.0312-17.05 38.0818-38.082 38.0818-21.031 0-38.08-17.0506-38.08-38.0818s17.049-38.0808 38.08-38.0808c21.032 0 38.082 17.0496 38.082 38.0808z" stroke="#f2f2f2" stroke-width="1.8"/><path d="m163.573 73.7041c0 12.8907-10.45 23.3406-23.341 23.3406-12.89 0-23.339-10.4499-23.339-23.3406 0-12.8898 10.449-23.3397 23.339-23.3397 12.891 0 23.341 10.4499 23.341 23.3397z" stroke="#f2f2f2" stroke-width="1.8"/><path d="m148.832 73.7041c0 4.7493-3.85 8.5995-8.6 8.5995-4.748 0-8.598-3.8502-8.598-8.5995 0-4.7484 3.85-8.5986 8.598-8.5986 4.75 0 8.6 3.8502 8.6 8.5986z" stroke="#f2f2f2" stroke-width="1.8"/><path d="m116.893 39.309c0 2.7144-2.199 4.914-4.914 4.914-2.714 0-4.914-2.1996-4.914-4.914s2.2-4.914 4.914-4.914c2.715 0 4.914 2.1996 4.914 4.914z" fill="#3b6385"/><path d="m115.665 81.0746c0 2.7144-2.2 4.914-4.914 4.914s-4.914-2.1996-4.914-4.914c0-2.7135 2.2-4.9131 4.914-4.9131s4.914 2.1996 4.914 4.9131z" fill="#0f3858"/><path d="m61 239.6h96.3v-93.6h-96.3z" fill="#a5d164"/><path d="m122.2 180.2h9.9v-9.9h-9.9z" fill="#3b6385"/><path d="m87.1 198.2h9.9v-9.9h-9.9z" fill="#fff"/><path d="m104.2 215.3h9.9v-9.9h-9.9z" fill="#fff"/><path d="m122.2 198.2h9.9v-9.9h-9.9z" fill="#fff"/><path d="m104.2 180.2h9.9v-9.9h-9.9z" fill="#fff"/><g fill="#3b6385"><path d="m87.1 180.2h9.9v-9.9h-9.9z"/><path d="m87.1 215.3h9.9v-9.9h-9.9z"/><path d="m104.2 198.2h9.9v-9.9h-9.9z"/><path d="m122.2 215.3h9.9v-9.9h-9.9z"/></g></g></svg>