<svg fill="none" height="274" viewBox="0 0 247 274" width="247" xmlns="http://www.w3.org/2000/svg" xmlns:xlink="http://www.w3.org/1999/xlink"><clipPath id="a"><path d="m0 0h247v274h-247z"/></clipPath><g clip-path="url(#a)" clip-rule="evenodd" fill-rule="evenodd"><path d="m96 147.409h158.465v-147.409h-158.465z" fill="#36d4ed"/><g stroke="#f2f2f2" stroke-width="1.8"><path d="m226.826 73.7042c0 28.4938-23.099 51.5938-51.593 51.5938s-51.594-23.1-51.594-51.5938c0-28.494 23.1-51.5925 51.594-51.5925s51.593 23.0985 51.593 51.5925z"/><path d="m213.314 73.7042c0 21.0312-17.05 38.0818-38.082 38.0818-21.031 0-38.08-17.0506-38.08-38.0818s17.049-38.0808 38.08-38.0808c21.032 0 38.082 17.0496 38.082 38.0808z"/><path d="m198.573 73.7042c0 12.8907-10.45 23.3406-23.341 23.3406-12.89 0-23.339-10.4499-23.339-23.3406 0-12.8898 10.449-23.3397 23.339-23.3397 12.891 0 23.341 10.4499 23.341 23.3397z"/><path d="m183.832 73.7042c0 4.7493-3.85 8.5995-8.6 8.5995-4.748 0-8.598-3.8502-8.598-8.5995 0-4.7484 3.85-8.5986 8.598-8.5986 4.75 0 8.6 3.8502 8.6 8.5986z"/></g><path d="m151.893 39.309c0 2.7144-2.199 4.914-4.914 4.914-2.714 0-4.914-2.1996-4.914-4.914s2.2-4.914 4.914-4.914c2.715 0 4.914 2.1996 4.914 4.914z" fill="#3b6385"/><path d="m150.665 81.0747c0 2.7144-2.2 4.914-4.914 4.914s-4.914-2.1996-4.914-4.914c0-2.7135 2.2-4.9131 4.914-4.9131s4.914 2.1996 4.914 4.9131" fill="#0f3858"/><path d="m119 273.777h61.692v-126.777h-61.692z" fill="#3b6385"/><path d="m139.97 165.455c2.537 0 4.593 2.056 4.593 4.594v37.108c0 2.537-2.056 4.594-4.593 4.594s-4.595-2.057-4.595-4.594v-37.108c0-2.538 2.058-4.594 4.595-4.594z" fill="#a4dd26"/><path d="m135.424 195.284c0-2.523 2.046-4.569 4.57-4.569s4.57 2.046 4.57 4.569c0 2.525-2.046 4.57-4.57 4.57s-4.57-2.045-4.57-4.57" fill="#fff"/><path d="m160.576 205.221c2.639 0 4.779 2.14 4.779 4.779v47.487c0 2.639-2.14 4.778-4.779 4.778-2.64 0-4.779-2.139-4.779-4.778v-47.487c0-2.639 2.139-4.779 4.779-4.779z" fill="#36d4ed"/><path d="m160.576 204.868c2.639 0 4.779 2.139 4.779 4.779v-38.536c0-2.637-2.14-4.778-4.779-4.778-2.64 0-4.779 2.141-4.779 4.778v38.536c0-2.64 2.139-4.779 4.779-4.779z" fill="#0f3859"/><path d="m0 133.6h96.3v-93.6h-96.3z" fill="#a5d164"/><path d="m61.2 74.2001h9.8999v-9.9001h-9.8999z" fill="#3b6385"/><path d="m26.1 92.2h9.9v-9.9h-9.9z" fill="#fff"/><path d="m43.2 109.3h9.8999v-9.9h-9.8999z" fill="#fff"/><path d="m61.2 92.2h9.8999v-9.9h-9.8999z" fill="#fff"/><path d="m43.2 74.2001h9.8999v-9.9001h-9.8999z" fill="#fff"/><path d="m26.1 74.2001h9.9v-9.9001h-9.9z" fill="#3b6385"/><path d="m26.1 109.3h9.9v-9.9h-9.9z" fill="#3b6385"/><path d="m43.2 92.2001h9.8999v-9.9001h-9.8999z" fill="#3b6385"/><path d="m61.2 109.3h9.8999v-9.9h-9.8999z" fill="#3b6385"/></g></svg>