<?xml version="1.0" encoding="UTF-8"?>
<svg width="20px" height="20px" viewBox="0 0 20 20" version="1.1" xmlns="http://www.w3.org/2000/svg" xmlns:xlink="http://www.w3.org/1999/xlink">
    <!-- Generator: Sketch 50.2 (55047) - http://www.bohemiancoding.com/sketch -->
    <title>Shape</title>
    <desc>Created with Sketch.</desc>
    <defs>
        <path d="M12,2 C6.48,2 2,6.48 2,12 C2,17.52 6.48,22 12,22 C17.52,22 22,17.52 22,12 C22,6.48 17.52,2 12,2 L12,2 Z M10,14.5857864 L7.70710678,12.2928932 C7.31658249,11.9023689 6.68341751,11.9023689 6.29289322,12.2928932 C5.90236893,12.6834175 5.90236893,13.3165825 6.29289322,13.7071068 L9.29289322,16.7071068 C9.68341751,17.0976311 10.3165825,17.0976311 10.7071068,16.7071068 L17.7071068,9.70710678 C18.0976311,9.31658249 18.0976311,8.68341751 17.7071068,8.29289322 C17.3165825,7.90236893 16.6834175,7.90236893 16.2928932,8.29289322 L10,14.5857864 Z" id="path-1"></path>
    </defs>
    <g id="Symbols" stroke="none" stroke-width="1" fill="none" fill-rule="evenodd">
        <g id="status/passed" transform="translate(-2.000000, -2.000000)">
            <mask id="mask-2" fill="white">
                <use xlink:href="#path-1"></use>
            </mask>
            <use id="Shape" fill="#63C935" xlink:href="#path-1"></use>
        </g>
    </g>
</svg>