<?xml version="1.0" encoding="UTF-8"?>
<svg width="20px" height="20px" viewBox="0 0 20 20" version="1.1" xmlns="http://www.w3.org/2000/svg" xmlns:xlink="http://www.w3.org/1999/xlink">
    <!-- Generator: Sketch 49.3 (51167) - http://www.bohemiancoding.com/sketch -->
    <title>see less</title>
    <desc>Created with Sketch.</desc>
    <defs>
        <path d="M10,20 C4.4771525,20 0,15.5228475 0,10 C0,4.4771525 4.4771525,0 10,0 C15.5228475,0 20,4.4771525 20,10 C20,15.5228475 15.5228475,20 10,20 Z M10,19 C14.9705627,19 19,14.9705627 19,10 C19,5.02943725 14.9705627,1 10,1 C5.02943725,1 1,5.02943725 1,10 C1,14.9705627 5.02943725,19 10,19 Z" id="path-1"></path>
        <path d="M3.33333333,8.66666667 L12.6666667,8.66666667 C13.0348565,8.66666667 13.3333333,8.36818983 13.3333333,8 C13.3333333,7.63181017 13.0348565,7.33333333 12.6666667,7.33333333 L3.33333333,7.33333333 C2.9651435,7.33333333 2.66666667,7.63181017 2.66666667,8 C2.66666667,8.36818983 2.9651435,8.66666667 3.33333333,8.66666667 Z" id="path-3"></path>
    </defs>
    <g id="Pricing-Detail-Pages" stroke="none" stroke-width="1" fill="none" fill-rule="evenodd">
        <g id="Performance-(michael)" transform="translate(-254.000000, -4202.000000)">
            <g id="FAQ" transform="translate(254.000000, 3978.000000)">
                <g id="see-less">
                    <g transform="translate(0.000000, 224.000000)">
                        <g id="icons/circle">
                            <g id="blue/@blue500">
                                <mask id="mask-2" fill="white">
                                    <use xlink:href="#path-1"></use>
                                </mask>
                                <use id="Mask" fill="#6A6A6A" xlink:href="#path-1"></use>
                                <g id="@n500" mask="url(#mask-2)" fill="#555555">
                                    <g transform="translate(-39.000000, -39.000000)" id="Path">
                                        <rect x="0" y="0" width="100" height="100"></rect>
                                    </g>
                                </g>
                            </g>
                        </g>
                        <g id="actions/subtract" transform="translate(2.000000, 2.000000)">
                            <g id="icons/actions/subtract">
                                <polygon id="Shape" points="0 0 16 0 16 16 0 16"></polygon>
                                <mask id="mask-4" fill="white">
                                    <use xlink:href="#path-3"></use>
                                </mask>
                                <use id="Combined-Shape" fill="#000000" fill-rule="nonzero" xlink:href="#path-3"></use>
                                <g id="@n400" mask="url(#mask-4)" fill="#6A6A6A">
                                    <rect id="Path" x="0" y="0" width="16" height="16"></rect>
                                </g>
                            </g>
                        </g>
                    </g>
                </g>
            </g>
        </g>
    </g>
</svg>